<?xml version="1.0" encoding="UTF-8"?>
<svg id="Layer_2" data-name="Layer 2" xmlns="http://www.w3.org/2000/svg" viewBox="0 0 719.24 717.83">
  <defs>
    <style>
      .cls-1 {
        fill: #fff;
      }

      .cls-2 {
        stroke-linecap: round;
      }

      .cls-2, .cls-3 {
        fill: none;
        stroke: #fff;
        stroke-width: 26px;
      }
    </style>
  </defs>
  <g id="Layer_1-2" data-name="Layer 1">
    <path class="cls-3" d="m39.6,492.8c-17.54-41.47-26.6-85.31-26.6-133.17,0-191.43,155.19-346.62,346.62-346.62s346.62,155.19,346.62,346.62c0,47.19-8.56,87.17-25.64,128.17"/>
    <path id="Path_2" data-name="Path 2" class="cls-2" d="m560.35,346.42s-14.56-198.71-193.23-201.34c-178.67-2.62-219.05,150.35-215.69,201.34"/>
    <path id="Ellipse_6" data-name="Ellipse 6" class="cls-1" d="m245.44,492.8c-2.28-4.66-3.55-9.9-3.55-15.44,0-19.45,15.77-35.21,35.21-35.21s35.21,15.77,35.21,35.21c0,5.54-1.28,10.77-3.55,15.43"/>
    <path id="Ellipse_6-2" data-name="Ellipse 6" class="cls-1" d="m297.75,491.8c-5.72,11.71-17.75,19.78-31.66,19.78-13.91,0-25.94-8.07-31.66-19.78"/>
    <path id="Ellipse_6-3" data-name="Ellipse 6" class="cls-1" d="m30.44,492.8c2.09-7.1,6.49-12,11.58-12s9.49,4.89,11.58,12"/>
    <path id="Ellipse_7" data-name="Ellipse 7" class="cls-1" d="m408.29,492.8c-2.28-4.66-3.55-9.9-3.55-15.43,0-19.45,15.77-35.21,35.21-35.21s35.21,15.77,35.21,35.21c0,5.54-1.28,10.77-3.55,15.43"/>
    <path id="Ellipse_7-2" data-name="Ellipse 7" class="cls-1" d="m460.61,491.8c-5.72,11.71-17.75,19.78-31.66,19.78-13.91,0-25.94-8.07-31.66-19.78"/>
    <path class="cls-3" d="m30.44,492.8s81.17,215,317.17,212,322-207,322-207"/>
    <rect class="cls-1" x="671.6" y="481.8" width="21" height="11"/>
    <rect class="cls-1" x="657.6" y="492.8" width="21" height="11" transform="translate(1336.21 996.59) rotate(-180)"/>
    <path class="cls-1" d="m27.6,516.8s-5-10-6-12-4-9-4-9l-1.01-3h10.01s14.26,22.52,14.26,22.52l-13.26,1.48Z"/>
    <path class="cls-1" d="m672.6,472.8s-4,10-5.78,14.5c-1.02,2.58-2.66,5.5-2.66,5.5l8.44,1.87v-21.87Z"/>
    <path class="cls-1" d="m675.6,514.8s8-16,9-18,2-5,2-5l-12-1,1,24Z"/>
  </g>
</svg>